<?xml version="1.0" encoding="UTF-8" standalone="no"?>
<!-- Created with Inkscape (http://www.inkscape.org/) -->

<svg
   width="512"
   height="512"
   viewBox="0 0 512 512"
   version="1.1"
   id="svg1"
   inkscape:version="1.4.2 (ebf0e940d0, 2025-05-08)"
   sodipodi:docname="logo.svg"
   inkscape:export-filename="icon-192x192.png"
   inkscape:export-xdpi="36"
   inkscape:export-ydpi="36"
   xmlns:inkscape="http://www.inkscape.org/namespaces/inkscape"
   xmlns:sodipodi="http://sodipodi.sourceforge.net/DTD/sodipodi-0.dtd"
   xmlns="http://www.w3.org/2000/svg"
   xmlns:svg="http://www.w3.org/2000/svg">
  <sodipodi:namedview
     id="namedview1"
     pagecolor="#ffffff"
     bordercolor="#000000"
     borderopacity="0.25"
     inkscape:showpageshadow="2"
     inkscape:pageopacity="0.0"
     inkscape:pagecheckerboard="0"
     inkscape:deskcolor="#d1d1d1"
     inkscape:document-units="px"
     showguides="false"
     inkscape:zoom="1.0551359"
     inkscape:cx="115.15104"
     inkscape:cy="302.33072"
     inkscape:window-width="1920"
     inkscape:window-height="1010"
     inkscape:window-x="0"
     inkscape:window-y="0"
     inkscape:window-maximized="1"
     inkscape:current-layer="svg1" />
  <defs
     id="defs1">
    <inkscape:path-effect
       effect="powerstroke"
       message=""
       id="path-effect261"
       is_visible="true"
       lpeversion="1.3"
       scale_width="1"
       interpolator_type="CentripetalCatmullRom"
       interpolator_beta="0.75"
       start_linecap_type="round"
       end_linecap_type="round"
       offset_points="22.660456,20.104712"
       linejoin_type="spiro"
       miter_limit="4"
       not_jump="true"
       sort_points="true" />
    <inkscape:path-effect
       effect="simplify"
       id="path-effect260"
       is_visible="true"
       lpeversion="1.3"
       threshold="0.012"
       steps="1"
       smooth_angles="0"
       helper_size="0"
       simplify_individual_paths="false"
       simplify_just_coalesce="false"
       step="1" />
    <inkscape:path-effect
       effect="powerstroke"
       message=""
       id="path-effect259"
       is_visible="true"
       lpeversion="1.3"
       scale_width="1"
       interpolator_type="CentripetalCatmullRom"
       interpolator_beta="0.75"
       start_linecap_type="round"
       end_linecap_type="round"
       offset_points="11.051621,20.104712"
       linejoin_type="spiro"
       miter_limit="4"
       not_jump="true"
       sort_points="true" />
    <inkscape:path-effect
       effect="simplify"
       id="path-effect258"
       is_visible="true"
       lpeversion="1.3"
       threshold="0.012"
       steps="1"
       smooth_angles="0"
       helper_size="0"
       simplify_individual_paths="false"
       simplify_just_coalesce="false"
       step="1" />
    <inkscape:path-effect
       effect="spiro"
       id="path-effect257"
       is_visible="true"
       lpeversion="1" />
    <linearGradient
       id="swatch23"
       inkscape:swatch="solid">
      <stop
         style="stop-color:#000000;stop-opacity:1;"
         offset="0"
         id="stop23" />
    </linearGradient>
    <filter
       style="color-interpolation-filters:sRGB;"
       inkscape:label="Drop Shadow"
       id="filter399"
       x="-0.035508237"
       y="-0.043257972"
       width="1.1168275"
       height="1.1154455">
      <feOffset
         id="feOffset412"
         result="offset"
         in="blur"
         dx="15.940625"
         dy="-1.165625" />
      <feComposite
         id="feComposite412"
         result="comp1"
         operator="in"
         in="flood"
         in2="offset" />
      <feComposite
         id="feComposite413"
         result="fbSourceGraphic"
         operator="over"
         in="fbSourceGraphic"
         in2="comp1" />
      <feColorMatrix
         result="fbSourceGraphicAlpha"
         in="fbSourceGraphic"
         values="0 0 0 -1 0 0 0 0 -1 0 0 0 0 -1 0 0 0 0 1 0"
         id="feColorMatrix664" />
      <feFlood
         id="feFlood664"
         result="flood"
         in="fbSourceGraphic"
         flood-opacity="0.635294"
         flood-color="rgb(0,0,0)" />
      <feGaussianBlur
         id="feGaussianBlur664"
         result="blur"
         in="fbSourceGraphic"
         stdDeviation="7.215625" />
      <feOffset
         id="feOffset664"
         result="offset"
         in="blur"
         dx="6.401563"
         dy="13.526563" />
      <feComposite
         id="feComposite664"
         result="comp1"
         operator="in"
         in="flood"
         in2="offset" />
      <feComposite
         id="feComposite665"
         result="comp2"
         operator="over"
         in="fbSourceGraphic"
         in2="comp1" />
    </filter>
  </defs>
  <script
     id="mesh_polyfill"
     type="text/javascript">
!function(){const t=&quot;http://www.w3.org/2000/svg&quot;,e=&quot;http://www.w3.org/1999/xlink&quot;,s=&quot;http://www.w3.org/1999/xhtml&quot;,r=2;if(document.createElementNS(t,&quot;meshgradient&quot;).x)return;const n=(t,e,s,r)=&gt;{let n=new x(.5*(e.x+s.x),.5*(e.y+s.y)),o=new x(.5*(t.x+e.x),.5*(t.y+e.y)),i=new x(.5*(s.x+r.x),.5*(s.y+r.y)),a=new x(.5*(n.x+o.x),.5*(n.y+o.y)),h=new x(.5*(n.x+i.x),.5*(n.y+i.y)),l=new x(.5*(a.x+h.x),.5*(a.y+h.y));return[[t,o,a,l],[l,h,i,r]]},o=t=&gt;{let e=t[0].distSquared(t[1]),s=t[2].distSquared(t[3]),r=.25*t[0].distSquared(t[2]),n=.25*t[1].distSquared(t[3]),o=e&gt;s?e:s,i=r&gt;n?r:n;return 18*(o&gt;i?o:i)},i=(t,e)=&gt;Math.sqrt(t.distSquared(e)),a=(t,e)=&gt;t.scale(2/3).add(e.scale(1/3)),h=t=&gt;{let e,s,r,n,o,i,a,h=new g;return t.match(/(\w+\(\s*[^)]+\))+/g).forEach(t=&gt;{let l=t.match(/[\w.-]+/g),d=l.shift();switch(d){case&quot;translate&quot;:2===l.length?e=new g(1,0,0,1,l[0],l[1]):(console.error(&quot;mesh.js: translate does not have 2 arguments!&quot;),e=new g(1,0,0,1,0,0)),h=h.append(e);break;case&quot;scale&quot;:1===l.length?s=new g(l[0],0,0,l[0],0,0):2===l.length?s=new g(l[0],0,0,l[1],0,0):(console.error(&quot;mesh.js: scale does not have 1 or 2 arguments!&quot;),s=new g(1,0,0,1,0,0)),h=h.append(s);break;case&quot;rotate&quot;:if(3===l.length&amp;&amp;(e=new g(1,0,0,1,l[1],l[2]),h=h.append(e)),l[0]){r=l[0]*Math.PI/180;let t=Math.cos(r),e=Math.sin(r);Math.abs(t)&lt;1e-16&amp;&amp;(t=0),Math.abs(e)&lt;1e-16&amp;&amp;(e=0),a=new g(t,e,-e,t,0,0),h=h.append(a)}else console.error(&quot;math.js: No argument to rotate transform!&quot;);3===l.length&amp;&amp;(e=new g(1,0,0,1,-l[1],-l[2]),h=h.append(e));break;case&quot;skewX&quot;:l[0]?(r=l[0]*Math.PI/180,n=Math.tan(r),o=new g(1,0,n,1,0,0),h=h.append(o)):console.error(&quot;math.js: No argument to skewX transform!&quot;);break;case&quot;skewY&quot;:l[0]?(r=l[0]*Math.PI/180,n=Math.tan(r),i=new g(1,n,0,1,0,0),h=h.append(i)):console.error(&quot;math.js: No argument to skewY transform!&quot;);break;case&quot;matrix&quot;:6===l.length?h=h.append(new g(...l)):console.error(&quot;math.js: Incorrect number of arguments for matrix!&quot;);break;default:console.error(&quot;mesh.js: Unhandled transform type: &quot;+d)}}),h},l=t=&gt;{let e=[],s=t.split(/[ ,]+/);for(let t=0,r=s.length-1;t&lt;r;t+=2)e.push(new x(parseFloat(s[t]),parseFloat(s[t+1])));return e},d=(t,e)=&gt;{for(let s in e)t.setAttribute(s,e[s])},c=(t,e,s,r,n)=&gt;{let o,i,a=[0,0,0,0];for(let h=0;h&lt;3;++h)e[h]&lt;t[h]&amp;&amp;e[h]&lt;s[h]||t[h]&lt;e[h]&amp;&amp;s[h]&lt;e[h]?a[h]=0:(a[h]=.5*((e[h]-t[h])/r+(s[h]-e[h])/n),o=Math.abs(3*(e[h]-t[h])/r),i=Math.abs(3*(s[h]-e[h])/n),a[h]&gt;o?a[h]=o:a[h]&gt;i&amp;&amp;(a[h]=i));return a},u=[[1,0,0,0,0,0,0,0,0,0,0,0,0,0,0,0],[0,0,0,0,1,0,0,0,0,0,0,0,0,0,0,0],[-3,3,0,0,-2,-1,0,0,0,0,0,0,0,0,0,0],[2,-2,0,0,1,1,0,0,0,0,0,0,0,0,0,0],[0,0,0,0,0,0,0,0,1,0,0,0,0,0,0,0],[0,0,0,0,0,0,0,0,0,0,0,0,1,0,0,0],[0,0,0,0,0,0,0,0,-3,3,0,0,-2,-1,0,0],[0,0,0,0,0,0,0,0,2,-2,0,0,1,1,0,0],[-3,0,3,0,0,0,0,0,-2,0,-1,0,0,0,0,0],[0,0,0,0,-3,0,3,0,0,0,0,0,-2,0,-1,0],[9,-9,-9,9,6,3,-6,-3,6,-6,3,-3,4,2,2,1],[-6,6,6,-6,-3,-3,3,3,-4,4,-2,2,-2,-2,-1,-1],[2,0,-2,0,0,0,0,0,1,0,1,0,0,0,0,0],[0,0,0,0,2,0,-2,0,0,0,0,0,1,0,1,0],[-6,6,6,-6,-4,-2,4,2,-3,3,-3,3,-2,-1,-2,-1],[4,-4,-4,4,2,2,-2,-2,2,-2,2,-2,1,1,1,1]],f=t=&gt;{let e=[];for(let s=0;s&lt;16;++s){e[s]=0;for(let r=0;r&lt;16;++r)e[s]+=u[s][r]*t[r]}return e},p=(t,e,s)=&gt;{const r=e*e,n=s*s,o=e*e*e,i=s*s*s;return t[0]+t[1]*e+t[2]*r+t[3]*o+t[4]*s+t[5]*s*e+t[6]*s*r+t[7]*s*o+t[8]*n+t[9]*n*e+t[10]*n*r+t[11]*n*o+t[12]*i+t[13]*i*e+t[14]*i*r+t[15]*i*o},y=t=&gt;{let e=[],s=[],r=[];for(let s=0;s&lt;4;++s)e[s]=[],e[s][0]=n(t[0][s],t[1][s],t[2][s],t[3][s]),e[s][1]=[],e[s][1].push(...n(...e[s][0][0])),e[s][1].push(...n(...e[s][0][1])),e[s][2]=[],e[s][2].push(...n(...e[s][1][0])),e[s][2].push(...n(...e[s][1][1])),e[s][2].push(...n(...e[s][1][2])),e[s][2].push(...n(...e[s][1][3]));for(let t=0;t&lt;8;++t){s[t]=[];for(let r=0;r&lt;4;++r)s[t][r]=[],s[t][r][0]=n(e[0][2][t][r],e[1][2][t][r],e[2][2][t][r],e[3][2][t][r]),s[t][r][1]=[],s[t][r][1].push(...n(...s[t][r][0][0])),s[t][r][1].push(...n(...s[t][r][0][1])),s[t][r][2]=[],s[t][r][2].push(...n(...s[t][r][1][0])),s[t][r][2].push(...n(...s[t][r][1][1])),s[t][r][2].push(...n(...s[t][r][1][2])),s[t][r][2].push(...n(...s[t][r][1][3]))}for(let t=0;t&lt;8;++t){r[t]=[];for(let e=0;e&lt;8;++e)r[t][e]=[],r[t][e][0]=s[t][0][2][e],r[t][e][1]=s[t][1][2][e],r[t][e][2]=s[t][2][2][e],r[t][e][3]=s[t][3][2][e]}return r};class x{constructor(t,e){this.x=t||0,this.y=e||0}toString(){return`(x=${this.x}, y=${this.y})`}clone(){return new x(this.x,this.y)}add(t){return new x(this.x+t.x,this.y+t.y)}scale(t){return void 0===t.x?new x(this.x*t,this.y*t):new x(this.x*t.x,this.y*t.y)}distSquared(t){let e=this.x-t.x,s=this.y-t.y;return e*e+s*s}transform(t){let e=this.x*t.a+this.y*t.c+t.e,s=this.x*t.b+this.y*t.d+t.f;return new x(e,s)}}class g{constructor(t,e,s,r,n,o){void 0===t?(this.a=1,this.b=0,this.c=0,this.d=1,this.e=0,this.f=0):(this.a=t,this.b=e,this.c=s,this.d=r,this.e=n,this.f=o)}toString(){return`affine: ${this.a} ${this.c} ${this.e} \n       ${this.b} ${this.d} ${this.f}`}append(t){t instanceof g||console.error(&quot;mesh.js: argument to Affine.append is not affine!&quot;);let e=this.a*t.a+this.c*t.b,s=this.b*t.a+this.d*t.b,r=this.a*t.c+this.c*t.d,n=this.b*t.c+this.d*t.d,o=this.a*t.e+this.c*t.f+this.e,i=this.b*t.e+this.d*t.f+this.f;return new g(e,s,r,n,o,i)}}class w{constructor(t,e){this.nodes=t,this.colors=e}paintCurve(t,e){if(o(this.nodes)&gt;r){const s=n(...this.nodes);let r=[[],[]],o=[[],[]];for(let t=0;t&lt;4;++t)r[0][t]=this.colors[0][t],r[1][t]=(this.colors[0][t]+this.colors[1][t])/2,o[0][t]=r[1][t],o[1][t]=this.colors[1][t];let i=new w(s[0],r),a=new w(s[1],o);i.paintCurve(t,e),a.paintCurve(t,e)}else{let s=Math.round(this.nodes[0].x);if(s&gt;=0&amp;&amp;s&lt;e){let r=4*(~~this.nodes[0].y*e+s);t[r]=Math.round(this.colors[0][0]),t[r+1]=Math.round(this.colors[0][1]),t[r+2]=Math.round(this.colors[0][2]),t[r+3]=Math.round(this.colors[0][3])}}}}class m{constructor(t,e){this.nodes=t,this.colors=e}split(){let t=[[],[],[],[]],e=[[],[],[],[]],s=[[[],[]],[[],[]]],r=[[[],[]],[[],[]]];for(let s=0;s&lt;4;++s){const r=n(this.nodes[0][s],this.nodes[1][s],this.nodes[2][s],this.nodes[3][s]);t[0][s]=r[0][0],t[1][s]=r[0][1],t[2][s]=r[0][2],t[3][s]=r[0][3],e[0][s]=r[1][0],e[1][s]=r[1][1],e[2][s]=r[1][2],e[3][s]=r[1][3]}for(let t=0;t&lt;4;++t)s[0][0][t]=this.colors[0][0][t],s[0][1][t]=this.colors[0][1][t],s[1][0][t]=(this.colors[0][0][t]+this.colors[1][0][t])/2,s[1][1][t]=(this.colors[0][1][t]+this.colors[1][1][t])/2,r[0][0][t]=s[1][0][t],r[0][1][t]=s[1][1][t],r[1][0][t]=this.colors[1][0][t],r[1][1][t]=this.colors[1][1][t];return[new m(t,s),new m(e,r)]}paint(t,e){let s,n=!1;for(let t=0;t&lt;4;++t)if((s=o([this.nodes[0][t],this.nodes[1][t],this.nodes[2][t],this.nodes[3][t]]))&gt;r){n=!0;break}if(n){let s=this.split();s[0].paint(t,e),s[1].paint(t,e)}else{new w([...this.nodes[0]],[...this.colors[0]]).paintCurve(t,e)}}}class b{constructor(t){this.readMesh(t),this.type=t.getAttribute(&quot;type&quot;)||&quot;bilinear&quot;}readMesh(t){let e=[[]],s=[[]],r=Number(t.getAttribute(&quot;x&quot;)),n=Number(t.getAttribute(&quot;y&quot;));e[0][0]=new x(r,n);let o=t.children;for(let t=0,r=o.length;t&lt;r;++t){e[3*t+1]=[],e[3*t+2]=[],e[3*t+3]=[],s[t+1]=[];let r=o[t].children;for(let n=0,o=r.length;n&lt;o;++n){let o=r[n].children;for(let r=0,i=o.length;r&lt;i;++r){let i=r;0!==t&amp;&amp;++i;let h,d=o[r].getAttribute(&quot;path&quot;),c=&quot;l&quot;;null!=d&amp;&amp;(c=(h=d.match(/\s*([lLcC])\s*(.*)/))[1]);let u=l(h[2]);switch(c){case&quot;l&quot;:0===i?(e[3*t][3*n+3]=u[0].add(e[3*t][3*n]),e[3*t][3*n+1]=a(e[3*t][3*n],e[3*t][3*n+3]),e[3*t][3*n+2]=a(e[3*t][3*n+3],e[3*t][3*n])):1===i?(e[3*t+3][3*n+3]=u[0].add(e[3*t][3*n+3]),e[3*t+1][3*n+3]=a(e[3*t][3*n+3],e[3*t+3][3*n+3]),e[3*t+2][3*n+3]=a(e[3*t+3][3*n+3],e[3*t][3*n+3])):2===i?(0===n&amp;&amp;(e[3*t+3][3*n+0]=u[0].add(e[3*t+3][3*n+3])),e[3*t+3][3*n+1]=a(e[3*t+3][3*n],e[3*t+3][3*n+3]),e[3*t+3][3*n+2]=a(e[3*t+3][3*n+3],e[3*t+3][3*n])):(e[3*t+1][3*n]=a(e[3*t][3*n],e[3*t+3][3*n]),e[3*t+2][3*n]=a(e[3*t+3][3*n],e[3*t][3*n]));break;case&quot;L&quot;:0===i?(e[3*t][3*n+3]=u[0],e[3*t][3*n+1]=a(e[3*t][3*n],e[3*t][3*n+3]),e[3*t][3*n+2]=a(e[3*t][3*n+3],e[3*t][3*n])):1===i?(e[3*t+3][3*n+3]=u[0],e[3*t+1][3*n+3]=a(e[3*t][3*n+3],e[3*t+3][3*n+3]),e[3*t+2][3*n+3]=a(e[3*t+3][3*n+3],e[3*t][3*n+3])):2===i?(0===n&amp;&amp;(e[3*t+3][3*n+0]=u[0]),e[3*t+3][3*n+1]=a(e[3*t+3][3*n],e[3*t+3][3*n+3]),e[3*t+3][3*n+2]=a(e[3*t+3][3*n+3],e[3*t+3][3*n])):(e[3*t+1][3*n]=a(e[3*t][3*n],e[3*t+3][3*n]),e[3*t+2][3*n]=a(e[3*t+3][3*n],e[3*t][3*n]));break;case&quot;c&quot;:0===i?(e[3*t][3*n+1]=u[0].add(e[3*t][3*n]),e[3*t][3*n+2]=u[1].add(e[3*t][3*n]),e[3*t][3*n+3]=u[2].add(e[3*t][3*n])):1===i?(e[3*t+1][3*n+3]=u[0].add(e[3*t][3*n+3]),e[3*t+2][3*n+3]=u[1].add(e[3*t][3*n+3]),e[3*t+3][3*n+3]=u[2].add(e[3*t][3*n+3])):2===i?(e[3*t+3][3*n+2]=u[0].add(e[3*t+3][3*n+3]),e[3*t+3][3*n+1]=u[1].add(e[3*t+3][3*n+3]),0===n&amp;&amp;(e[3*t+3][3*n+0]=u[2].add(e[3*t+3][3*n+3]))):(e[3*t+2][3*n]=u[0].add(e[3*t+3][3*n]),e[3*t+1][3*n]=u[1].add(e[3*t+3][3*n]));break;case&quot;C&quot;:0===i?(e[3*t][3*n+1]=u[0],e[3*t][3*n+2]=u[1],e[3*t][3*n+3]=u[2]):1===i?(e[3*t+1][3*n+3]=u[0],e[3*t+2][3*n+3]=u[1],e[3*t+3][3*n+3]=u[2]):2===i?(e[3*t+3][3*n+2]=u[0],e[3*t+3][3*n+1]=u[1],0===n&amp;&amp;(e[3*t+3][3*n+0]=u[2])):(e[3*t+2][3*n]=u[0],e[3*t+1][3*n]=u[1]);break;default:console.error(&quot;mesh.js: &quot;+c+&quot; invalid path type.&quot;)}if(0===t&amp;&amp;0===n||r&gt;0){let e=window.getComputedStyle(o[r]).stopColor.match(/^rgb\s*\(\s*(\d+)\s*,\s*(\d+)\s*,\s*(\d+)\s*\)$/i),a=window.getComputedStyle(o[r]).stopOpacity,h=255;a&amp;&amp;(h=Math.floor(255*a)),e&amp;&amp;(0===i?(s[t][n]=[],s[t][n][0]=Math.floor(e[1]),s[t][n][1]=Math.floor(e[2]),s[t][n][2]=Math.floor(e[3]),s[t][n][3]=h):1===i?(s[t][n+1]=[],s[t][n+1][0]=Math.floor(e[1]),s[t][n+1][1]=Math.floor(e[2]),s[t][n+1][2]=Math.floor(e[3]),s[t][n+1][3]=h):2===i?(s[t+1][n+1]=[],s[t+1][n+1][0]=Math.floor(e[1]),s[t+1][n+1][1]=Math.floor(e[2]),s[t+1][n+1][2]=Math.floor(e[3]),s[t+1][n+1][3]=h):3===i&amp;&amp;(s[t+1][n]=[],s[t+1][n][0]=Math.floor(e[1]),s[t+1][n][1]=Math.floor(e[2]),s[t+1][n][2]=Math.floor(e[3]),s[t+1][n][3]=h))}}e[3*t+1][3*n+1]=new x,e[3*t+1][3*n+2]=new x,e[3*t+2][3*n+1]=new x,e[3*t+2][3*n+2]=new x,e[3*t+1][3*n+1].x=(-4*e[3*t][3*n].x+6*(e[3*t][3*n+1].x+e[3*t+1][3*n].x)+-2*(e[3*t][3*n+3].x+e[3*t+3][3*n].x)+3*(e[3*t+3][3*n+1].x+e[3*t+1][3*n+3].x)+-1*e[3*t+3][3*n+3].x)/9,e[3*t+1][3*n+2].x=(-4*e[3*t][3*n+3].x+6*(e[3*t][3*n+2].x+e[3*t+1][3*n+3].x)+-2*(e[3*t][3*n].x+e[3*t+3][3*n+3].x)+3*(e[3*t+3][3*n+2].x+e[3*t+1][3*n].x)+-1*e[3*t+3][3*n].x)/9,e[3*t+2][3*n+1].x=(-4*e[3*t+3][3*n].x+6*(e[3*t+3][3*n+1].x+e[3*t+2][3*n].x)+-2*(e[3*t+3][3*n+3].x+e[3*t][3*n].x)+3*(e[3*t][3*n+1].x+e[3*t+2][3*n+3].x)+-1*e[3*t][3*n+3].x)/9,e[3*t+2][3*n+2].x=(-4*e[3*t+3][3*n+3].x+6*(e[3*t+3][3*n+2].x+e[3*t+2][3*n+3].x)+-2*(e[3*t+3][3*n].x+e[3*t][3*n+3].x)+3*(e[3*t][3*n+2].x+e[3*t+2][3*n].x)+-1*e[3*t][3*n].x)/9,e[3*t+1][3*n+1].y=(-4*e[3*t][3*n].y+6*(e[3*t][3*n+1].y+e[3*t+1][3*n].y)+-2*(e[3*t][3*n+3].y+e[3*t+3][3*n].y)+3*(e[3*t+3][3*n+1].y+e[3*t+1][3*n+3].y)+-1*e[3*t+3][3*n+3].y)/9,e[3*t+1][3*n+2].y=(-4*e[3*t][3*n+3].y+6*(e[3*t][3*n+2].y+e[3*t+1][3*n+3].y)+-2*(e[3*t][3*n].y+e[3*t+3][3*n+3].y)+3*(e[3*t+3][3*n+2].y+e[3*t+1][3*n].y)+-1*e[3*t+3][3*n].y)/9,e[3*t+2][3*n+1].y=(-4*e[3*t+3][3*n].y+6*(e[3*t+3][3*n+1].y+e[3*t+2][3*n].y)+-2*(e[3*t+3][3*n+3].y+e[3*t][3*n].y)+3*(e[3*t][3*n+1].y+e[3*t+2][3*n+3].y)+-1*e[3*t][3*n+3].y)/9,e[3*t+2][3*n+2].y=(-4*e[3*t+3][3*n+3].y+6*(e[3*t+3][3*n+2].y+e[3*t+2][3*n+3].y)+-2*(e[3*t+3][3*n].y+e[3*t][3*n+3].y)+3*(e[3*t][3*n+2].y+e[3*t+2][3*n].y)+-1*e[3*t][3*n].y)/9}}this.nodes=e,this.colors=s}paintMesh(t,e){let s=(this.nodes.length-1)/3,r=(this.nodes[0].length-1)/3;if(&quot;bilinear&quot;===this.type||s&lt;2||r&lt;2){let n;for(let o=0;o&lt;s;++o)for(let s=0;s&lt;r;++s){let r=[];for(let t=3*o,e=3*o+4;t&lt;e;++t)r.push(this.nodes[t].slice(3*s,3*s+4));let i=[];i.push(this.colors[o].slice(s,s+2)),i.push(this.colors[o+1].slice(s,s+2)),(n=new m(r,i)).paint(t,e)}}else{let n,o,a,h,l,d,u;const x=s,g=r;s++,r++;let w=new Array(s);for(let t=0;t&lt;s;++t){w[t]=new Array(r);for(let e=0;e&lt;r;++e)w[t][e]=[],w[t][e][0]=this.nodes[3*t][3*e],w[t][e][1]=this.colors[t][e]}for(let t=0;t&lt;s;++t)for(let e=0;e&lt;r;++e)0!==t&amp;&amp;t!==x&amp;&amp;(n=i(w[t-1][e][0],w[t][e][0]),o=i(w[t+1][e][0],w[t][e][0]),w[t][e][2]=c(w[t-1][e][1],w[t][e][1],w[t+1][e][1],n,o)),0!==e&amp;&amp;e!==g&amp;&amp;(n=i(w[t][e-1][0],w[t][e][0]),o=i(w[t][e+1][0],w[t][e][0]),w[t][e][3]=c(w[t][e-1][1],w[t][e][1],w[t][e+1][1],n,o));for(let t=0;t&lt;r;++t){w[0][t][2]=[],w[x][t][2]=[];for(let e=0;e&lt;4;++e)n=i(w[1][t][0],w[0][t][0]),o=i(w[x][t][0],w[x-1][t][0]),w[0][t][2][e]=n&gt;0?2*(w[1][t][1][e]-w[0][t][1][e])/n-w[1][t][2][e]:0,w[x][t][2][e]=o&gt;0?2*(w[x][t][1][e]-w[x-1][t][1][e])/o-w[x-1][t][2][e]:0}for(let t=0;t&lt;s;++t){w[t][0][3]=[],w[t][g][3]=[];for(let e=0;e&lt;4;++e)n=i(w[t][1][0],w[t][0][0]),o=i(w[t][g][0],w[t][g-1][0]),w[t][0][3][e]=n&gt;0?2*(w[t][1][1][e]-w[t][0][1][e])/n-w[t][1][3][e]:0,w[t][g][3][e]=o&gt;0?2*(w[t][g][1][e]-w[t][g-1][1][e])/o-w[t][g-1][3][e]:0}for(let s=0;s&lt;x;++s)for(let r=0;r&lt;g;++r){let n=i(w[s][r][0],w[s+1][r][0]),o=i(w[s][r+1][0],w[s+1][r+1][0]),c=i(w[s][r][0],w[s][r+1][0]),x=i(w[s+1][r][0],w[s+1][r+1][0]),g=[[],[],[],[]];for(let t=0;t&lt;4;++t){(d=[])[0]=w[s][r][1][t],d[1]=w[s+1][r][1][t],d[2]=w[s][r+1][1][t],d[3]=w[s+1][r+1][1][t],d[4]=w[s][r][2][t]*n,d[5]=w[s+1][r][2][t]*n,d[6]=w[s][r+1][2][t]*o,d[7]=w[s+1][r+1][2][t]*o,d[8]=w[s][r][3][t]*c,d[9]=w[s+1][r][3][t]*x,d[10]=w[s][r+1][3][t]*c,d[11]=w[s+1][r+1][3][t]*x,d[12]=0,d[13]=0,d[14]=0,d[15]=0,u=f(d);for(let e=0;e&lt;9;++e){g[t][e]=[];for(let s=0;s&lt;9;++s)g[t][e][s]=p(u,e/8,s/8),g[t][e][s]&gt;255?g[t][e][s]=255:g[t][e][s]&lt;0&amp;&amp;(g[t][e][s]=0)}}h=[];for(let t=3*s,e=3*s+4;t&lt;e;++t)h.push(this.nodes[t].slice(3*r,3*r+4));l=y(h);for(let s=0;s&lt;8;++s)for(let r=0;r&lt;8;++r)(a=new m(l[s][r],[[[g[0][s][r],g[1][s][r],g[2][s][r],g[3][s][r]],[g[0][s][r+1],g[1][s][r+1],g[2][s][r+1],g[3][s][r+1]]],[[g[0][s+1][r],g[1][s+1][r],g[2][s+1][r],g[3][s+1][r]],[g[0][s+1][r+1],g[1][s+1][r+1],g[2][s+1][r+1],g[3][s+1][r+1]]]])).paint(t,e)}}}transform(t){if(t instanceof x)for(let e=0,s=this.nodes.length;e&lt;s;++e)for(let s=0,r=this.nodes[0].length;s&lt;r;++s)this.nodes[e][s]=this.nodes[e][s].add(t);else if(t instanceof g)for(let e=0,s=this.nodes.length;e&lt;s;++e)for(let s=0,r=this.nodes[0].length;s&lt;r;++s)this.nodes[e][s]=this.nodes[e][s].transform(t)}scale(t){for(let e=0,s=this.nodes.length;e&lt;s;++e)for(let s=0,r=this.nodes[0].length;s&lt;r;++s)this.nodes[e][s]=this.nodes[e][s].scale(t)}}document.querySelectorAll(&quot;rect,circle,ellipse,path,text&quot;).forEach((r,n)=&gt;{let o=r.getAttribute(&quot;id&quot;);o||(o=&quot;patchjs_shape&quot;+n,r.setAttribute(&quot;id&quot;,o));const i=r.style.fill.match(/^url\(\s*&quot;?\s*#([^\s&quot;]+)&quot;?\s*\)/),a=r.style.stroke.match(/^url\(\s*&quot;?\s*#([^\s&quot;]+)&quot;?\s*\)/);if(i&amp;&amp;i[1]){const a=document.getElementById(i[1]);if(a&amp;&amp;&quot;meshgradient&quot;===a.nodeName){const i=r.getBBox();let l=document.createElementNS(s,&quot;canvas&quot;);d(l,{width:i.width,height:i.height});const c=l.getContext(&quot;2d&quot;);let u=c.createImageData(i.width,i.height);const f=new b(a);&quot;objectBoundingBox&quot;===a.getAttribute(&quot;gradientUnits&quot;)&amp;&amp;f.scale(new x(i.width,i.height));const p=a.getAttribute(&quot;gradientTransform&quot;);null!=p&amp;&amp;f.transform(h(p)),&quot;userSpaceOnUse&quot;===a.getAttribute(&quot;gradientUnits&quot;)&amp;&amp;f.transform(new x(-i.x,-i.y)),f.paintMesh(u.data,l.width),c.putImageData(u,0,0);const y=document.createElementNS(t,&quot;image&quot;);d(y,{width:i.width,height:i.height,x:i.x,y:i.y});let g=l.toDataURL();y.setAttributeNS(e,&quot;xlink:href&quot;,g),r.parentNode.insertBefore(y,r),r.style.fill=&quot;none&quot;;const w=document.createElementNS(t,&quot;use&quot;);w.setAttributeNS(e,&quot;xlink:href&quot;,&quot;#&quot;+o);const m=&quot;patchjs_clip&quot;+n,M=document.createElementNS(t,&quot;clipPath&quot;);M.setAttribute(&quot;id&quot;,m),M.appendChild(w),r.parentElement.insertBefore(M,r),y.setAttribute(&quot;clip-path&quot;,&quot;url(#&quot;+m+&quot;)&quot;),u=null,l=null,g=null}}if(a&amp;&amp;a[1]){const o=document.getElementById(a[1]);if(o&amp;&amp;&quot;meshgradient&quot;===o.nodeName){const i=parseFloat(r.style.strokeWidth.slice(0,-2))*(parseFloat(r.style.strokeMiterlimit)||parseFloat(r.getAttribute(&quot;stroke-miterlimit&quot;))||1),a=r.getBBox(),l=Math.trunc(a.width+i),c=Math.trunc(a.height+i),u=Math.trunc(a.x-i/2),f=Math.trunc(a.y-i/2);let p=document.createElementNS(s,&quot;canvas&quot;);d(p,{width:l,height:c});const y=p.getContext(&quot;2d&quot;);let g=y.createImageData(l,c);const w=new b(o);&quot;objectBoundingBox&quot;===o.getAttribute(&quot;gradientUnits&quot;)&amp;&amp;w.scale(new x(l,c));const m=o.getAttribute(&quot;gradientTransform&quot;);null!=m&amp;&amp;w.transform(h(m)),&quot;userSpaceOnUse&quot;===o.getAttribute(&quot;gradientUnits&quot;)&amp;&amp;w.transform(new x(-u,-f)),w.paintMesh(g.data,p.width),y.putImageData(g,0,0);const M=document.createElementNS(t,&quot;image&quot;);d(M,{width:l,height:c,x:0,y:0});let S=p.toDataURL();M.setAttributeNS(e,&quot;xlink:href&quot;,S);const k=&quot;pattern_clip&quot;+n,A=document.createElementNS(t,&quot;pattern&quot;);d(A,{id:k,patternUnits:&quot;userSpaceOnUse&quot;,width:l,height:c,x:u,y:f}),A.appendChild(M),o.parentNode.appendChild(A),r.style.stroke=&quot;url(#&quot;+k+&quot;)&quot;,g=null,p=null,S=null}}})}();
</script>
  <g
     inkscape:groupmode="layer"
     id="layer2"
     inkscape:label="Rat"
     style="display:inline;filter:url(#filter399)">
    <path
       style="fill:#303030;fill-opacity:1;fill-rule:nonzero;stroke:none;stroke-opacity:1;paint-order:fill markers stroke"
       id="path36"
       d="m 307.75944,59.478637 c -30.94174,-5.429018 -62.8826,-17.766964 -94.3435,-10.643723 -25.3577,5.555782 -41.08735,30.780311 -49.05209,53.576666 -8.81077,23.02296 9.51421,44.16507 29.30352,53.35553 38.64572,21.92037 83.24839,32.49511 127.64082,29.25527 24.35656,1.26715 60.52195,-5.99141 59.03218,-37.1917 0.57904,-26.27465 -9.62519,-57.130535 -36.6201,-66.775898 17.93573,10.263788 2.91787,1.630434 -5.61584,-3.295085 29.17633,16.661915 -30.91156,-18.853752 0.23548,-0.480949 -25.32534,-17.338229 -56.19006,-22.479636 -86.28298,-23.684529 11.73805,13.274823 29.99576,8.178265 45.57491,12.270855 7.36495,-1.807153 52.39404,18.255403 37.96629,12.393957 -15.14175,-8.700208 -8.21003,-4.52412 2.83084,1.752065 -22.7818,-13.700682 2.68503,2.67593 11.51397,7.229748 -16.94914,-9.891805 -3.28197,-1.819718 5.20883,3.064688 -21.05823,-15.842778 12.5211,15.552498 9.58712,27.283568 10.0067,25.60142 -2.99226,58.89305 -34.11906,57.57991 -44.01154,4.83532 -89.58169,0.56894 -129.73062,-19.15977 -11.91784,-5.88734 -10.43142,-4.45971 -0.0437,1.39275 -20.61265,-9.98732 -32.06059,-34.43727 -21.21511,-55.78951 11.37155,-26.005985 35.27711,-50.328936 66.08546,-46.213965 25.11074,1.071669 49.51894,7.618395 73.90719,13.151708 -3.95453,-3.023862 -7.90905,-6.047724 -11.86358,-9.071586 z" />
    <path
       style="fill:#303030;fill-opacity:1;fill-rule:nonzero;stroke:none;paint-order:fill markers stroke"
       id="path37"
       d="m 200.74104,62.110274 c -5.09779,-30.992533 -34.24801,-42.492172 -62.78137,-36.780906 -22.86971,1.810003 -40.01831,39.081524 -8.80923,43.226522 21.37957,8.945259 9.66437,1.763821 6.04629,0.674397 2.76658,10.520978 12.90388,26.159187 20.91654,26.378982 -10.98564,-8.260866 -11.57474,-9.388121 0.62153,-1.742638 -0.82087,-18.750004 -22.65681,-31.281457 -41.66732,-35.360323 15.66866,18.953674 9.01996,-29.324677 35.07388,-24.546156 13.09569,-2.948863 51.0521,8.069636 20.77503,-6.218226 12.94998,9.339521 11.35853,31.003952 29.44668,34.186063 z" />
    <path
       style="fill:#303030;fill-opacity:1;fill-rule:nonzero;stroke:none;paint-order:fill markers stroke"
       id="path38"
       d="m 345.10111,86.763392 c 12.7876,-8.625685 53.02073,-24.740112 52.39703,-19.269155 -20.71051,-13.929144 22.66001,17.683721 -5.54228,19.956722 -16.47465,1.203972 -35.62863,15.878151 -12.00927,21.778281 -4.50561,-8.19041 45.64224,-11.739592 32.56024,-31.425403 -16.57627,-26.694796 -47.50272,-20.184869 -69.10513,-4.306166 -19.09192,6.412266 -6.30896,5.898128 1.69941,13.265721 z" />
    <path
       style="fill:#ffffff;fill-opacity:1;fill-rule:nonzero;stroke:none;paint-order:fill markers stroke"
       id="path39"
       d="m 217.88072,88.576923 c -13.45408,9.212459 23.42173,20.499897 19.69015,-0.548623 -6.84871,-28.062815 -38.42658,14.54418 -8.1549,12.38906 17.89204,-6.534559 6.76742,-31.47781 -5.94443,-17.250964 -17.33455,24.735874 32.71427,22.586584 13.83754,0.447 -15.26997,-12.614554 -26.72968,16.0638 -6.0185,14.176208 9.24734,-17.904903 -29.14398,-15.112862 -5.95419,-2.77851 13.47059,7.245526 15.2251,-15.353411 3.07167,-12.018834 -9.06023,10.717323 -3.46299,15.589734 5.01118,19.00066 2.48019,-10.843375 9.4113,-20.871456 -5.82742,-25.199876 -7.01637,12.309773 -14.11201,17.332254 3.69666,22.002691 -8.98018,-4.102262 15.20282,-12.555067 -3.2335,-14.087504 -8.66413,-11.3658 -1.68343,9.742298 -12.51394,7.167474 16.26102,12.001755 17.53859,4.622464 2.33968,-3.298782 z" />
    <path
       style="display:inline;fill:#ffffff;fill-opacity:1;fill-rule:nonzero;stroke:none;paint-order:fill markers stroke"
       id="path39-5"
       d="m 298.39707,100.54975 c -13.45407,9.21245 23.42173,20.4999 19.69015,-0.54862 -6.84871,-28.062825 -38.42658,14.54417 -8.1549,12.38906 17.89203,-6.53457 6.76743,-31.477813 -5.94443,-17.250971 -17.33455,24.735881 32.71427,22.586591 13.83754,0.447002 -15.26997,-12.614557 -26.72968,16.063809 -6.0185,14.176209 9.24734,-17.9049 -29.14398,-15.112862 -5.95419,-2.77851 13.4706,7.24556 15.22509,-15.353506 3.07167,-12.018881 -9.06024,10.717321 -3.46298,15.589731 5.01118,19.000661 2.48018,-10.84338 9.4113,-20.871458 -5.82742,-25.199881 -7.01637,12.309791 -14.11202,17.332231 3.69666,22.002671 -8.98018,-4.10227 15.20282,-12.555063 -3.2335,-14.0875 -8.66413,-11.36581 -1.68342,9.74229 -12.51394,7.16747 16.26096,12.00174 17.53864,4.62248 2.33968,-3.29871 z" />
    <path
       style="fill:#303030;fill-opacity:1;fill-rule:nonzero;stroke:none;paint-order:fill markers stroke"
       id="path43"
       d="m 219.27735,249.16919 c -29.88662,5.5147 -60.64627,-6.84121 -90.17661,1.99282 -17.52042,-3.03572 14.83856,15.19539 2.56669,-1.41182 -3.39699,-15.33805 6.97096,-39.82401 -13.34053,-44.27751 0.0443,12.63709 -8.41746,51.69698 17.27934,54.83587 31.48728,-8.91927 64.0077,1.81087 95.89792,-2.51835 -4.0756,-2.87367 -8.15121,-5.74734 -12.22681,-8.62101 z" />
    <path
       style="fill:#303030;fill-opacity:1;fill-rule:nonzero;stroke:none;paint-order:fill markers stroke"
       id="path44"
       d="m 300.74319,262.19676 c 32.75652,4.58349 66.11471,6.26145 99.18877,4.18492 13.15257,-8.79963 21.64581,-42.10847 0.89632,-46.7786 -2.98082,6.98548 -0.29543,50.28597 -29.88378,38.72147 -27.47215,0.65279 -54.9902,-0.84378 -82.06489,-5.19722 3.95453,3.02314 7.90905,6.04629 11.86358,9.06943 z" />
    <path
       style="fill:#000000;fill-opacity:1;fill-rule:nonzero;stroke:none;paint-order:fill markers stroke"
       id="path46"
       d="m 447.15874,153.93247 c -14.01502,17.74325 -39.21688,33.82149 -34.70253,59.44692 15.98206,16.14032 28.34348,63.65816 56.79233,49.50827 10.52312,-25.52909 14.41053,-53.58826 14.55868,-81.01997 2.84368,-25.50072 -31.24989,-32.39353 -45.15618,-29.72045 5.99463,10.24455 38.14896,12.01084 31.20584,8.57882 -22.06938,-17.4102 8.60193,9.84217 0.67327,22.79622 -1.82081,25.12754 -3.70669,52.12271 -16.26943,74.47672 -18.24968,-2.39051 22.33435,15.87884 1.68042,4.49065 -10.3763,-20.80647 -43.23909,-41.18515 -25.54602,-66.94862 2.04344,-13.94252 41.14711,-30.42648 20.87796,-39.13831 -1.37144,-0.82342 -2.74289,-1.64683 -4.11434,-2.47025 z" />
    <path
       style="fill:#000000;fill-opacity:1;fill-rule:nonzero;stroke:none;paint-order:fill markers stroke"
       id="path47"
       d="m 67.843291,161.22579 c -22.064603,11.24269 -37.902139,30.24036 -48.757235,52.22781 -12.0004726,33.82025 40.614058,32.96649 60.949771,23.03953 11.65529,-17.03791 26.769513,-47.40971 15.079224,-67.67953 -11.891962,-7.92298 -31.853704,-10.14856 -11.665389,1.23909 16.522645,4.54351 7.572481,0.21559 1.538259,-3.34357 1.928029,20.67216 -2.847781,54.72814 -23.888212,63.47242 -13.070338,7.29362 -51.1718772,-2.15692 -27.555555,8.27669 -9.143363,-23.78621 18.130958,-49.26677 36.637296,-63.02245 16.38112,-8.52154 7.156395,-6.21304 -2.338159,-14.20999 z" />
    <path
       style="fill:#303030;fill-opacity:1;fill-rule:nonzero;stroke:none;paint-order:fill markers stroke"
       id="path48"
       d="m 250.22877,182.35386 c -13.78155,19.06774 -18.79455,41.70486 -26.22364,63.3128 -10.01539,25.33586 19.86917,47.63044 18.57967,74.30305 -5.11331,24.51292 -26.78796,41.87538 -29.84546,67.74495 4.03289,15.91912 -11.68362,43.79423 9.70056,49.81691 6.76863,4.95194 0.6593,-20.67193 3.36641,-27.27741 -2.34571,-25.19203 11.5173,-48.76365 25.7999,-68.31178 11.97412,-25.64631 -7.89969,-50.80735 -16.40193,-74.10723 2.17073,-22.87132 10.9556,-49.22843 23.61591,-70.28896 10.32282,-10.27808 -2.47942,-9.87267 -8.59142,-15.19233 z" />
    <path
       style="fill:#303030;fill-opacity:1;fill-rule:nonzero;stroke:none;paint-order:fill markers stroke"
       id="path49"
       d="m 242.77637,325.16735 c -0.17782,29.14655 14.48778,53.61473 27.32618,78.23208 8.27,13.95429 9.50264,34.31028 26.53599,40.09508 -1.42433,-13.02527 -15.23745,-39.37341 -23.98522,-56.10306 -17.3889,-15.1796 -7.08073,-46.76421 -23.00513,-58.81793 -2.2906,-1.13539 -4.58121,-2.27078 -6.87182,-3.40617 z" />
    <path
       style="fill:#222222;fill-opacity:1;fill-rule:nonzero;stroke:none;paint-order:fill markers stroke"
       id="path50"
       d="m 244.93432,256.77711 c 23.38197,5.83254 47.19649,5.12288 70.92349,2.25213 5.37073,-7.18556 -25.57561,-12.1375 -35.42733,-6.9529 -11.50548,5.4819 -45.39975,-7.14721 -43.89541,-1.63555 2.79975,2.1121 5.5995,4.22421 8.39925,6.33632 z" />
    <path
       style="fill:#303030;fill-opacity:1;fill-rule:nonzero;stroke:none;paint-order:fill markers stroke"
       id="path51"
       d="m 147.50946,259.70826 c -4.67732,-20.1589 28.53464,-27.82649 29.69683,-27.35179 -21.10043,-13.84115 8.66785,19.64224 17.97239,19.51644 12.67037,6.04657 22.31364,4.81973 7.07303,-3.34884 -10.00153,-2.54703 -26.02743,-9.18579 -7.58958,0.13749 2.96455,5.45514 -16.19584,-21.98224 -23.94068,-23.60057 -16.83674,-7.88578 -49.71272,21.41181 -28.75298,31.72422 1.847,0.97435 3.69399,1.9487 5.54099,2.92305 z" />
    <path
       style="fill:#303030;fill-opacity:1;fill-rule:nonzero;stroke:none;paint-order:fill markers stroke"
       id="path52"
       d="m 326.16938,257.71665 c 12.12861,0.21679 41.28437,-10.91317 42.14127,-12.14385 -22.08164,-12.60726 30.80754,22.92378 25.01057,15.02495 -16.36839,-12.40434 -40.27253,-7.71505 -59.33994,-7.73393 10.70382,16.71955 36.15654,-6.84976 40.38702,-0.53923 -8.23823,-15.84925 -45.76448,-7.38739 -34.53651,5.99706 11.60816,3.43494 49.79683,6.14077 53.32571,1.82327 -6.48747,-7.38682 -29.4207,-16.32647 -8.94499,-5.80931 1.77017,1.08532 -29.06749,-27.49524 -42.87056,-11.24277 -12.05195,8.00366 -40.0758,0.5752 -15.17257,14.62381 z" />
    <path
       style="display:inline;fill:#2b2b2b;fill-opacity:1;fill-rule:nonzero;stroke:none"
       id="path294"
       d="m 201.63299,255.88065 c 30.12321,-1.77592 40.83386,-26.70337 44.52678,-52.94606 12.78031,-14.59282 -16.42443,-32.88524 -8.78065,-10.55507 -2.75087,20.55303 26.61488,41.3169 32.41499,42.0707 -26.40244,-16.04799 39.98872,24.02403 3.45763,17.22971 -13.59769,-10.06577 -47.37083,-15.42307 -27.04379,-7.99501 -6.57284,-14.76907 13.14754,-25.88978 -8.87869,-29.90889 1.07981,16.68613 -11.51899,54.48653 15.86979,48.29526 17.66555,-11.62129 11.57087,-31.72926 -9.17761,-22.84671 7.26247,3.90691 15.67224,13.36136 10.64879,-4.08397 8.99437,8.17817 -23.66216,-14.99461 -2.53001,2.14232 9.33644,9.49055 40.30418,14.126 13.91225,0.92022 -14.63107,-1.27559 -23.69653,-0.0201 -6.02501,8.63374 15.60167,0.76204 11.46775,-2.41525 -0.33476,-8.91585 0.39852,17.13145 30.89652,26.10656 14.62056,2.44219 -7.66582,-13.01568 -29.06235,-37.76764 -40.5027,-32.00559 15.57445,20.52383 29.18377,52.24841 59.71076,50.17363 -13.3686,-13.79746 -28.57182,-8.05513 -14.10195,-3.70901 -16.09919,-11.39351 -33.96596,-48.96321 -39.33404,-44.27134 18.41207,9.23723 21.34258,37.93087 37.25465,42.75207 1.51039,-20.14033 -46.01982,-19.02721 -16.54126,-6.31236 16.07412,4.09557 21.09727,-4.05007 5.59497,-8.92223 -16.52482,-3.18008 -13.35141,-3.17787 -0.66412,4.37782 -7.60807,-8.73792 -32.57061,-26.12238 -23.01194,-0.68577 12.48362,17.79282 29.92436,-5.90055 8.98839,-4.10656 -7.22779,11.53962 -17.9959,21.99658 -2.72216,25.72639 -2.97102,-15.00127 9.77512,-58.05707 -14.0742,-47.66291 -17.83211,35.01045 31.30664,31.22548 49.57588,44.94482 40.95314,1.76821 -20.63311,-32.47934 -20.54053,-32.1957 19.56668,13.0779 -18.00507,-12.56786 -12.57614,-25.87259 4.15268,-13.62636 -20.8116,-36.56098 -17.71727,-10.27618 -4.42426,23.82157 -9.86217,52.77198 -39.89199,53.76016 -11.6523,-0.007 6.54616,7.50999 7.87338,9.80277 z" />
    <path
       style="fill:#303030;fill-opacity:1;fill-rule:nonzero;stroke:none;paint-order:fill markers stroke"
       id="path53"
       d="m 157.40724,251.86287 c 12.1968,-5.06476 27.47036,-11.50529 6.60768,-16.38039 0.0203,12.56099 31.43642,29.80976 30.02961,18.42601 -8.66667,-7.62039 -47.19179,-10.77059 -23.18323,1.33908 12.27487,2.16851 38.77097,5.87993 13.26524,-6.32892 -24.61033,-6.78882 20.88051,16.81316 -1.30706,2.47365 -1.55339,-24.33137 -32.49661,-18.08492 -35.36025,-6.34234 3.316,2.27097 6.63201,4.54194 9.94801,6.81291 z" />
    <path
       style="fill:#000000;fill-opacity:1;fill-rule:nonzero;stroke:none"
       id="path274"
       d="m 456.4931,158.78956 c -27.23584,10.15786 -45.93408,34.64579 -29.77734,63.17028 -0.66919,12.69039 19.08146,32.40623 22.78586,30.5355 -24.55171,-14.04729 26.40613,20.54121 19.3833,-8.63584 -3.91366,-22.01316 13.57367,-51.58866 2.0837,-68.75298 -25.49308,-18.03775 -50.8253,17.15391 -37.24502,41.15323 -6.39307,29.90208 41.94046,48.89588 45.44817,12.27028 11.48358,-24.18629 13.06698,-56.52933 -15.48187,-69.38878 -26.61541,-6.92454 -26.35498,38.28843 -24.09929,56.28826 0.70854,12.78894 11.59676,47.43101 24.29125,34.60461 4.42531,-25.90761 5.06957,-52.79553 7.9673,-78.46048 -21.53028,-15.81043 -30.8337,23.88143 -34.67046,40.28597 -1.18374,17.08264 3.77631,40.76877 21.09559,47.52798 9.40884,0.0486 -15.95731,-27.73236 -7.91639,-40.65985 -5.51642,-19.95515 38.78173,-49.11154 6.94412,-51.67668 0.39004,27.11457 -4.24896,54.20008 -6.52091,80.92787 26.55395,17.08521 -3.93236,-20.32121 1.03907,-33.50294 -5.43124,-17.54956 10.58434,-46.6559 13.42079,-50.46646 -24.43506,-16.17002 22.34755,14.57562 7.98121,31.06712 0.16183,20.03602 -19.05402,55.46277 -30.07584,44.23467 20.77833,18.93813 -2.0492,-18.67148 1.62731,-30.20635 -10.87356,-21.32288 26.15208,-33.55169 27.89318,-30.54248 -18.39383,-18.12212 -11.29863,26.70438 -15.56965,39.4874 -1.90826,9.7111 3.3715,36.43432 -14.323,27.84939 20.35636,11.57041 3.48366,2.35424 -6.48185,-3.34503 9.69689,3.77807 23.02726,15.93802 9.49528,0.69761 -10.04831,-22.85739 -22.31037,-58.02723 10.1032,-68.74071 17.49541,-8.55379 13.5204,-7.3498 0.60229,-15.72159 z" />
    <path
       style="fill:#000000;fill-opacity:1;fill-rule:nonzero;stroke:none"
       id="path276"
       d="m 42.023169,233.63802 c 11.161127,-9.35231 33.732001,-25.63822 8.199264,-25.70232 -22.047642,8.93737 1.761124,21.85762 11.999586,13.24018 -14.115472,-15.17639 -14.519329,10.99659 -33.059517,9.32639 2.360323,2.04797 18.233546,8.75417 2.620271,0.75112 -16.330016,-6.36732 15.309927,17.52241 22.192961,3.18603 22.428825,-4.1643 0.331355,-31.46598 -12.405768,-18.01759 10.610353,21.24451 34.602462,-10.4527 9.699078,-9.39401 -10.524198,10.67021 -32.720848,18.37685 -9.245875,26.6102 z" />
    <path
       style="fill:#eeaaff;fill-opacity:1;fill-rule:nonzero;stroke:none"
       id="path280"
       d="M 189.95628,67.796413 C 178.99493,48.791811 139.03673,25.217379 122.50875,48.566129 c -7.05955,23.92499 48.65335,36.636742 43.96268,35.807779 -18.94005,-11.756469 -2.54789,0.772435 8.21411,2.418233 -7.90406,-9.454992 -21.02833,-25.638977 -26.55055,-30.763057 11.26253,1.59969 25.29826,-4.619924 7.04265,-9.722832 -17.19485,-4.367324 -41.21657,17.694345 -15.64397,25.595541 13.97445,0.994877 42.6096,9.516814 48.35191,-4.29385 C 175.6132,59.56839 165.93457,55.691485 184.58834,65.880428 172.63211,50.874646 146.30984,32.942276 129.3447,50.575882 c 3.95912,19.072716 42.46809,40.429003 58.34601,26.24612 7.75552,-13.530176 -34.48166,-23.63763 -6.78957,-11.636283 -10.05047,-8.83279 -58.97195,-27.074614 -42.71254,0.02097 7.56124,11.055741 55.56467,15.432909 25.35156,1.274805 -20.53915,-8.524994 -10.47273,1.781552 -2.49499,0.596843 12.6239,-6.880003 14.894,-10.473199 -1.8578,-14.435291 -22.95477,14.158713 17.51194,24.14451 11.82735,15.574139 -20.66085,-16.493018 -11.81688,28.371173 7.07905,10.934441 6.23414,-3.849575 -12.21648,-12.035629 -14.67538,-5.789372 -10.42037,-5.772614 16.0782,9.216639 -1.23531,-1.232537 -8.52388,-5.518471 -28.98242,-14.782786 -8.8527,-4.01733 18.97372,10.425726 26.5309,-29.943994 -0.24562,-16.355546 -27.59787,8.729593 39.25519,11.779994 12.30766,3.143263 -10.61943,-9.790902 -33.53353,17.789367 -9.44198,19.251794 14.31295,-3.490142 24.18759,-6.565774 5.38883,-13.716184 -32.09997,4.35271 26.09638,19.681931 3.66475,5.605149 -18.50531,-7.204143 1.10206,15.576517 5.43306,8.048612 -8.63095,-7.978162 -19.42985,-8.913421 -1.94616,-1.067445 16.51072,-2.402091 -22.05494,-20.204408 -19.31184,-4.442414 12.30633,7.458265 37.2999,-0.05264 13.22334,-8.545211 -15.87691,2.657327 -20.63717,5.963182 -5.95012,13.20189 14.54162,-8.128922 18.50604,-24.325861 -1.77757,-22.768276 -20.77662,8.041406 14.6778,15.482315 17.49722,8.229073 -9.20089,-14.258975 -24.00887,0.584912 -28.72156,7.707542 9.40324,5.643371 25.24123,10.935508 7.01329,1.552689 -3.7809,-2.436936 36.53967,27.241224 28.55043,5.872047 -15.92624,-11.32786 -22.31114,6.021211 -8.30123,6.550204 20.86196,-17.223951 -33.7353,-24.438965 -7.26303,-11.651615 16.05721,2.782518 0.14929,-29.241623 -13.53931,-11.562891 -13.10754,16.085293 45.39037,23.420609 11.28941,10.765455 -1.68117,-0.02673 -38.3885,-10.387271 -13.68207,-0.320034 4.70766,6.631291 -6.55496,-16.21723 9.49379,-7.130193 12.32377,1.84761 29.80524,9.713457 9.03179,-1.230392 9.49977,5.882611 26.46485,14.569061 7.01656,3.462718 0.11098,-7.459766 7.07845,15.500008 -8.05488,11.569551 -11.261,-3.000017 -38.87953,-17.436393 -13.61008,-3.636947 -22.5077,-12.339404 6.92736,-25.634508 19.743,-15.131163 -24.53696,-17.785267 2.61065,10.40696 13.94835,12.974465 -5.37518,-2.064402 -15.70256,-10.854194 -9.97189,-4.811869 -9.89981,7.95764 -59.54735,-6.482733 -31.45084,7.171998 -14.77897,-15.372517 43.12848,-15.161949 8.04454,-25.318556 -11.63089,-0.297151 -26.16931,3.575818 -9.03082,12.839747 7.54113,12.278238 26.03639,30.561068 33.93774,29.985633 -11.29929,-10.079887 -33.56335,-16.986996 -42.80504,-20.788268 23.16906,18.499182 -13.84903,-16.904011 11.63686,-20.141571 10.87233,-3.856266 45.1292,15.870362 20.42819,1.636679 -3.83714,-5.209158 13.96502,18.500735 24.08113,18.734091 z" />
    <path
       style="fill:#e580ff;fill-opacity:1;fill-rule:nonzero;stroke:none"
       id="path281"
       d="m 350.29068,88.833908 c 10.84047,-2.337039 49.463,0.574941 41.88951,-12.168233 -7.94792,-8.5204 -44.191,3.627202 -36.946,8.152421 14.10152,11.08041 29.59379,-16.606461 47.44279,-14.892591 -11.59535,-14.838954 -26.6885,-0.09422 -38.88781,2.154963 7.97806,15.886178 43.73965,1.575431 15.90001,-4.18885 -9.00844,10.469291 -51.28283,18.586742 -22.46843,29.248049 8.30086,-6.659969 56.39395,-11.863249 26.26422,-19.238806 -24.94233,-4.304868 -1.58035,24.514869 9.78076,5.679397 15.28673,-8.420757 -19.76639,-13.892883 -21.96273,-0.5722 -27.39935,10.371307 6.71765,24.574592 15.88956,6.808561 26.6918,-25.223463 -49.75255,-27.083705 -27.901,3.532625 21.6867,21.658196 64.58172,-30.071821 20.85352,-32.038295 -24.85425,-5.464657 -46.08988,30.577286 -9.89339,30.196278 22.2332,7.117711 31.93193,-25.214735 11.72211,-18.071116 -4.97725,16.047845 -44.81333,2.336688 -18.82045,14.566288 3.08478,6.042993 -5.74481,-8.697693 5.60707,-10.974169 6.80583,-11.661338 40.91468,-1.311016 16.51683,-12.571367 -2.13606,-6.710268 6.51204,16.292135 -7.4353,17.604438 -14.36172,6.63753 -21.75181,11.468222 -7.59851,14.423907 -10.33387,-22.653899 39.61589,-13.885669 7.76675,-25.231873 10.33869,11.690467 -35.80091,20.5855 -6.01105,28.593124 7.87555,-8.157532 38.39769,-20.735875 13.06751,-27.326938 -17.21741,6.334468 -14.18474,12.465976 0.19563,15.222922 17.73522,-8.442332 -13.76636,-17.109553 -21.20861,-5.393194 -12.68932,4.039067 -27.70738,6.329209 -6.54961,14.138407 11.36139,-8.463836 53.74585,-23.250721 19.75896,-28.885155 -26.98442,0.54506 -1.09975,21.497742 10.03001,8.493972 16.35043,-1.849381 15.26283,-11.521777 1.50887,-14.121069 -13.44983,3.469795 -57.68631,23.140813 -22.60718,27.731082 16.68283,-3.264102 37.04992,-11.780703 14.19096,-15.412307 -7.63837,7.839267 -54.31332,-0.296012 -33.98336,11.71469 1.29612,0.94168 2.59224,1.883359 3.88836,2.825039 z" />
    <path
       style="fill:#eeaaff;fill-opacity:1;fill-rule:nonzero;stroke:none"
       id="path282"
       d="m 341.14386,74.316168 c 12.55942,12.395202 24.7887,44.250632 46.76174,22.242157 12.49361,-6.820744 29.11554,-18.984198 7.88715,-24.644122 -7.05941,10.762395 -37.485,26.147351 -34.71246,24.752185 17.67562,14.686772 -1.48189,-22.201347 -15.4653,-20.600793 -1.49038,-0.583143 -2.98075,-1.166285 -4.47113,-1.749427 z" />
    <path
       style="fill:#e580ff;fill-opacity:1;fill-rule:nonzero;stroke:none"
       id="path283"
       d="m 135.92575,46.278505 c 6.41759,-11.394319 40.92765,-6.758888 17.32516,-13.991524 -12.17444,-5.088045 33.78824,22.399636 10.80303,8.552552 -13.28714,-7.443038 26.65968,15.938453 5.82614,3.696936 -5.4328,-7.029785 11.09911,19.956197 16.06714,25.655795 20.13148,9.421777 -2.39983,-28.883229 -15.17296,-28.14158 -8.69107,-4.552647 18.94852,11.011465 0.34005,0.272895 -12.06642,-14.676068 -58.14119,-8.275271 -21.46333,0.419814 11.15178,-4.376102 36.70275,-1.383957 13.35874,-10.086899 3.63741,11.54518 1.39693,15.974427 11.80145,18.06797 -11.26919,-9.544474 -36.67231,-13.303507 -13.06754,-2.12888 9.69651,-6.714021 47.68327,0.441715 21.48314,-9.645688 -1.14437,9.996368 7.93641,32.769746 13.45672,21.913085 -5.79632,-10.248824 -12.72402,-43.729902 -25.09401,-28.18273 -2.47765,13.265664 7.35311,32.326845 18.73019,30.639084 -4.27517,-14.240154 -5.13369,-34.768238 -17.84151,-35.363945 0.63991,12.254734 18.39161,44.798335 26.17956,35.005529 11.80887,-31.02272 -43.62968,-32.275066 -46.93364,-19.576997 8.02563,8.828104 31.65188,11.223568 9.36476,2.01446 10.15963,12.286803 26.75971,8.994143 15.41074,-7.883343 -8.19497,-13.566792 -39.26617,-3.66877 -40.07545,-1.512401 11.21182,11.195829 28.86766,2.020928 42.69724,13.716672 -20.66627,-15.00697 2.95547,4.488141 3.48941,17.123526 26.53165,16.049171 -2.9433,-27.621232 -17.06482,-27.46131 18.9034,11.334051 6.04638,2.819916 -5.2499,-3.416084 26.78262,19.718725 -13.72128,-22.790051 -25.52668,-4.185401 -17.69294,8.052551 -9.29098,6.648771 1.15637,14.498464 z" />
    <path
       style="fill:#cccccc;fill-opacity:1;fill-rule:nonzero;stroke:none;stroke-width:1.08892;paint-order:fill markers stroke"
       id="path45"
       d="m 23.992028,201.90892 c 39.391707,13.05816 81.337742,11.7997 122.219112,15.51013 41.14241,2.12812 82.29555,0.68169 123.36332,-1.32973 52.04129,-0.55796 104.11645,-2.65232 156.12212,0.0462 23.97278,0.50851 48.04983,-1.15778 71.94771,1.04631 -11.40033,-10.11699 -26.05345,-11.17202 -40.77165,-9.76489 -57.04975,0.66158 -114.04437,-3.36028 -171.08023,0.0292 -47.62076,-1.14718 -95.10477,5.09914 -142.72651,1.39237 -44.587861,-2.2373 -90.229031,-2.09408 -133.1253363,-16.05204 4.6838213,3.04083 9.3676433,6.08166 14.0514643,9.12249 z" />
    <path
       style="display:inline;fill:#000000;fill-opacity:1;fill-rule:nonzero;stroke:none"
       id="path273"
       d="m 74.588905,172.52735 c -27.517426,-5.54765 -41.375792,15.55022 -35.990945,40.61658 5.064082,28.51043 44.445364,5.64376 39.288869,-18.25304 17.256239,-28.80694 -24.158799,-27.16403 -36.928848,-10.48621 -29.396386,10.97598 -20.417833,57.01226 13.475627,47.68301 22.978707,-3.56417 39.517283,-38.21065 33.379499,-54.78345 -17.434922,-13.50095 -41.321488,4.93611 -45.701211,23.50933 -10.861433,13.9767 -4.732049,45.50559 14.298071,26.12072 11.723647,-11.38396 29.011178,-36.95392 0.143347,-35.4062 -15.058933,4.90847 -61.2710293,26.91551 -27.152045,38.52164 9.773958,2.97276 48.316574,-1.80681 40.341422,-8.41551 -5.378404,-13.09286 -52.671689,7.80332 -24.304852,13.97069 20.468502,3.24923 53.724961,1.92714 56.260441,-25.36099 20.33568,-30.55105 -21.42256,-55.06819 -46.203546,-37.055 -17.461648,9.95862 -34.647275,51.59695 -2.311595,52.19235 30.356181,6.77162 54.430431,-59.14189 9.201445,-46.06987 -17.793622,5.50216 -48.04951,30.13065 -35.171854,48.57753 8.571203,4.97191 48.660649,5.69904 25.426914,-5.24409 -11.093358,-1.6088 -39.953194,-2.8558 -17.301869,5.72386 5.072474,-22.63583 27.79014,-44.51918 51.965544,-40.54783 -19.856517,-19.93848 -15.423532,38.69415 -42.997209,28.97325 -16.548822,-4.93306 12.529143,14.55008 4.675927,-6.24565 2.634615,-24.78348 31.792523,-43.79275 54.263973,-29.78803 -13.602246,-7.09032 -14.354627,-12.37762 -10.175416,4.48832 -0.490526,26.75953 -17.930665,46.39531 -45.375994,43.38538 -20.671816,-4.02248 3.743734,13.74833 10.86292,1.93334 19.441856,-0.94396 17.053102,-16.7338 -0.339425,-13.92473 -9.430091,4.84331 -34.295469,5.8735 -36.608899,6.35016 10.107545,12.98793 14.895865,-16.42554 31.912848,-17.11184 19.268216,-1.18392 16.901023,-13.80902 7.423583,-11.42458 -4.505861,14.81982 -36.562489,35.15065 -11.916708,36.3584 -1.311014,-24.49613 22.530684,-50.80008 37.164902,-51.81625 -17.800075,-15.49646 -9.890572,35.32457 -31.041656,39.05125 -10.794445,10.48803 -39.047172,-0.0489 -16.803241,10.34398 -11.399324,-21.47058 13.806052,-37.59999 30.586409,-45.39833 16.612049,-2.61439 9.493965,-6.06681 0.731909,-10.73381 -1.796683,18.11206 -15.345763,47.28919 -25.945199,47.53657 21.325483,17.91578 -6.600523,-47.37946 27.629937,-37.62088 20.995457,-1.12879 15.857154,0.3056 3.236925,-9.65007 z" />
    <ellipse
       id="path284"
       style="fill:#e580ff;stroke:#000000"
       cx="162.17801"
       cy="68.356018"
       rx="0.67500001"
       ry="0.67475355" />
    <path
       style="fill:#555555;fill-opacity:1;fill-rule:nonzero;stroke:none"
       id="path287"
       d="m 164.49588,76.041233 c -4.04513,10.542039 -11.71164,14.441052 -22.65599,7.970497 13.32454,7.05591 14.26895,10.595345 3.96113,-3.072154 -5.61335,-14.892051 -15.42444,-28.387453 -31.5502,-31.964056 14.38539,15.972214 35.3091,62.08923 57.81428,41.148306 11.03032,-9.399148 -1.23236,-8.189237 -7.56922,-14.082593 z" />
    <path
       style="display:inline;fill:#000000;fill-opacity:1;fill-rule:nonzero;stroke:none"
       id="path275"
       d="m 459.59171,261.00692 c -6.38857,-23.61705 -15.68637,-52.583 2.76334,-73.25588 11.11639,-9.20491 9.67397,-31.33091 -3.662,-23.70535 -3.14914,26.33288 -21.54312,50.48077 -16.71512,77.41704 5.42524,14.97107 6.76887,14.00875 18.61691,21.7533 -2.225,-16.88854 -27.3361,-38.61839 -23.2328,-49.70577 11.46377,-5.45202 44.98737,-13.12881 18.10264,-19.98984 -10.48153,15.22215 27.77897,16.08942 8.2036,-0.91473 -13.51483,-0.91518 -37.13545,9.47583 -42.93242,19.37641 18.34501,13.92563 17.10861,45.10021 38.49449,54.41165 1.05052,-15.73425 -12.19817,-37.27553 0.90045,-55.85671 5.6705,-14.44074 21.66759,-54.5907 -2.04823,-47.62654 -10.37131,21.05153 -27.32067,41.3363 -17.80729,66.47219 2.24299,14.32944 3.36657,28.05742 19.31643,31.62423 z" />
    <path
       style="fill:#000000;fill-opacity:1;fill-rule:nonzero;stroke:none"
       id="path288"
       d="m 170.17924,88.051738 c -1.72031,-14.911163 2.0744,-31.362405 -10.72808,-28.820826 6.02199,12.129044 51.40224,19.846502 23.20705,7.770314 -10.48869,-8.48375 11.46815,6.965461 -6.52736,5.514356 -21.1132,-0.259782 -2.81625,4.114397 5.47489,10.827559 -9.80342,-4.546605 -6.0717,-17.36853 -20.35413,-16.604267 -2.33185,13.385113 34.14273,34.902836 15.35499,10.592997 -3.96092,-11.478441 -26.52617,-17.667406 -11.07831,0.161548 11.7303,13.722806 50.61125,-4.693745 18.79771,-9.418123 -2.07821,-6.645846 -29.86588,-7.811542 -6.64631,0.469039 -9.32442,-12.738422 -30.46867,-19.92645 -21.46129,4.676142 -2.42598,10.587952 7.4694,10.42306 13.96084,14.831261 z" />
    <path
       style="fill:#000000;fill-opacity:1;fill-rule:nonzero;stroke:none"
       id="path289"
       d="m 355.57228,93.940631 c 18.44003,0.367293 8.30837,-4.489675 0.40217,-7.88671 -4.82027,12.483949 25.17854,25.754609 13.05308,4.706107 -8.63769,-12.872466 -38.81187,-7.567437 -13.45525,3.180603 z" />
    <path
       style="fill:#383838;fill-opacity:1;fill-rule:nonzero;stroke:none"
       id="path290"
       d="m 341.16242,78.973175 c 23.71377,-4.499138 48.6121,-14.389569 72.5242,-6.348791 -1.07682,0.691885 -15.04172,-12.9252 -7.14686,0.512244 -13.31722,8.576529 -7.04558,20.27865 4.3801,20.281766 27.02657,-28.028278 -26.60309,-37.897177 -47.3117,-30.837946 -12.02409,5.102009 -48.12773,4.410603 -22.79855,16.149372 z" />
    <path
       style="fill:#434343;fill-opacity:1;fill-rule:nonzero;stroke:none"
       id="path291"
       d="M 198.23045,59.959797 C 196.72798,28.78985 161.27246,26.547582 139.3026,17.554679 c -25.85424,-5.212584 7.5978,11.837031 15.74952,11.374934 8.78693,2.701209 42.63178,12.837425 17.69925,1.969102 -4.66078,-5.512331 15.16367,16.832604 14.63145,23.757731 3.61588,1.767784 7.23175,3.535567 10.84763,5.303351 z" />
    <path
       style="fill:#808080;fill-opacity:1;fill-rule:nonzero;stroke:none"
       id="path292"
       d="m 125.91718,16.21779 c -8.77739,10.994391 -20.91734,25.639373 -0.43356,30.4198 1.68915,-16.039391 26.38563,-21.751828 0.43356,-30.4198 z" />
    <path
       style="fill:#434343;fill-opacity:1;stroke:none;stroke-width:90.4976;stroke-dasharray:none;stroke-opacity:1;paint-order:fill markers stroke"
       d="m 266.72251,174.74025 c -27.05906,-5.37362 -56.45467,-11.18924 -78.66176,-28.40918 -21.64741,-19.30174 -8.35877,-53.043468 10.04383,-69.550083 13.1906,-21.184601 45.71399,-26.755389 66.70035,-14.436046 28.32537,3.943987 61.59844,4.43031 81.28032,28.177776 20.10059,15.335143 27.30876,49.216473 13.32888,70.561193 -20.24474,20.21588 -52.19706,13.27279 -78.01894,14.65509 -4.89852,-0.20074 -9.79421,-0.50655 -14.67268,-0.99875 z m 53.39516,-65.78884 c 9.81428,-11.67653 -13.14443,-29.508919 -19.34004,-13.958517 -21.23796,10.543497 15.63733,28.987307 19.34004,13.958517 z m -83.06412,-6.86817 c 15.00874,-11.558767 -7.92107,-36.856723 -16.46609,-19.39116 -18.18625,10.560969 6.20057,23.87489 16.46609,19.39116 z"
       id="path297" />
    <path
       style="fill:#3c3c3c;fill-opacity:1;fill-rule:nonzero;stroke:none"
       id="path298"
       d="m 182.80409,125.97719 c 6.62983,-15.49782 40.04106,-38.879888 23.52899,-50.471693 -14.79085,-2.575899 -36.91941,25.927843 -37.68415,34.535773 20.4658,14.63298 26.27275,-28.874894 44.5255,-35.7439 16.05115,-20.751177 47.19323,-12.297147 69.12932,-7.248154 2.29483,0.0086 -19.4526,-10.980616 -1.40066,-0.709799 15.87094,4.464302 54.14122,18.456213 58.18642,14.525506 -6.2934,-8.242645 -40.52213,-9.709443 -33.46971,-8.118639 6.09079,2.357749 15.02974,11.2749 5.48826,1.602022 11.50413,-2.964035 17.419,6.362582 2.63586,-3.731673 -4.75414,0.304507 25.45953,18.965431 36.56623,20.453065 24.20875,12.935592 -18.24021,-11.793959 3.51762,2.408488 9.34348,9.935264 8.89178,43.654934 21.44276,32.622954 -0.97598,-13.61271 -15.6302,-45.004997 -28.83464,-32.241876 10.86208,22.048886 20.83462,48.616306 13.46479,72.629216 -9.94468,10.079 -29.66829,7.45575 -5.95122,15.29622 6.27067,-10.91378 29.86796,-28.47323 1.71928,-28.19239 -4.65563,12.43905 -33.94456,24.36014 -30.96642,22.91122 10.65804,12.93275 35.78854,-6.08316 11.26179,-10.30897 -17.15625,11.35711 -48.69788,8.56571 -60.27166,5.50042 13.06042,12.21215 31.41624,1.67986 47.54541,1.91202 -21.67281,-14.85468 -50.79394,3.07289 -76.27795,-5.05448 -15.17643,-1.28929 -46.05992,-6.89962 -23.24041,2.19327 -22.39852,-13.3204 -4.32581,-1.99163 -3.66153,-2.61411 -20.79761,-14.70726 -27.94448,-44.65834 -51.25796,-53.77478 -23.00879,17.95122 40.5344,41.9362 6.79547,24.16498 16.77735,15.27483 37.39278,32.4354 61.89751,26.7384 16.49902,5.61809 -17.64508,-11.05679 1.62961,-0.76847 18.81003,9.85154 -17.28289,-13.48195 -26.14239,-11.73392 -14.98254,-6.43105 -6.09321,-2.59439 2.58184,2.76236 -8.33745,-6.39582 -33.24108,-27.5431 -34.17945,-24.92381 24.63226,12.3513 -25.66669,-11.36646 1.68208,3.65934 20.60444,12.57198 -14.98636,-10.4999 5.39108,4.77458 11.76242,15.34749 47.40114,28.42465 54.88051,27.17355 -22.47072,-16.24118 13.85068,6.44308 2.31925,-0.73366 -11.18635,-13.25518 -45.30895,-6.65448 -47.00507,-11.57646 22.51906,15.74517 -11.69938,-13.83796 -21.41077,-16.90606 -11.65039,-6.98861 21.28233,15.11125 1.95059,-0.69712 3.25779,-10.95315 -2.87866,-17.37366 -10.24472,-19.11952 12.55679,16.94864 25.22242,35.55633 42.32654,49.17588 20.46054,13.56696 46.95479,10.11139 70.54605,12.27175 12.95253,1.16613 55.43861,-0.95267 27.90227,-12.89513 -16.95646,-3.16071 -54.84427,8.81922 -18.97602,15.17204 15.99112,5.61333 51.00547,2.44763 54.88599,-8.66942 -14.06765,-16.29605 -37.42994,11.98388 -8.46272,11.33428 16.21612,1.21889 45.77651,-31.53803 18.41072,-29.57038 -7.86304,9.84629 -27.47508,32.74037 -0.69061,29.70306 31.13812,-3.96705 20.16635,-40.89245 15.25226,-61.36846 -7.75867,-8.41801 -11.04344,-27.596451 -8.76007,-24.054763 -18.10495,-17.823962 -0.4137,20.246563 5.04229,27.959303 19.74683,17.78776 7.91745,-32.156189 -6.64748,-32.95126 -6.30321,-5.955833 -52.5675,-24.979089 -27.03869,-11.878685 -5.44396,-8.893901 -42.41016,-27.239602 -30.45717,-7.195901 9.61285,8.453938 55.13585,15.614131 28.3112,-0.02289 -14.93773,-0.771289 -51.05203,-16.071519 -51.71657,-12.046709 17.32357,9.221493 -17.95827,-10.714138 -27.20759,-8.791331 -27.68401,-5.774969 -51.51174,5.706135 -66.4683,29.116296 -8.79198,10.25426 -29.97849,32.423819 -6.59661,32.886379 7.05341,-12.11816 30.28717,-26.512887 30.40318,-35.503005 -15.3027,-14.700814 -21.08867,25.502295 -35.34389,33.998795 -9.27067,6.53557 5.40031,7.97258 9.14376,12.13625 z" />
    <path
       style="fill:#313131;fill-opacity:1;fill-rule:nonzero;stroke:none"
       id="path299"
       d="m 222.5328,123.7179 c 2.86994,22.51807 0.28685,44.48026 1.47183,67.11563 -2.74331,29.92059 39.99634,42.86907 58.80077,23.95635 20.25835,-17.91495 26.62866,-44.1192 24.8228,-70.0235 -17.75521,-14.01765 -13.71227,5.65151 -14.35532,20.09399 -3.91751,24.03956 -23.51256,55.54306 -51.87738,49.04509 -18.72273,-7.00242 20.41125,16.0456 0.37675,0.93814 -7.28773,-19.38314 -4.71313,-41.20408 -3.85203,-61.24967 -1.40368,-14.00741 0.75264,-26.19287 -15.38742,-29.87603 z" />
    <path
       style="fill:#404040;fill-opacity:1;fill-rule:nonzero;stroke:none"
       id="path300"
       d="m 233.1489,143.90624 c -1.06801,24.52447 -9.57764,61.1314 12.18044,76.96118 21.50653,2.59813 16.75961,-38.02319 24.15475,-51.43948 -15.65815,-17.41742 -26.95835,15.91707 -21.84192,24.07848 17.48112,16.1525 12.90826,-38.82928 -4.76119,-22.7292 -3.52353,12.36443 -11.4982,39.39556 7.66674,34.43938 -0.71721,-12.29982 5.55867,-41.47522 -10.76716,-35.03257 -1.80809,27.39563 28.76242,31.75199 40.69022,9.626 -16.8338,-16.82039 -16.1235,17.34383 -25.93448,28.65595 21.45955,17.86516 21.65992,-21.42602 31.20039,-33.33768 -19.87056,-26.93464 -28.59809,46.09351 -2.80952,24.06914 6.74745,-14.22418 28.0121,-31.33802 2.2075,-32.76052 -4.51099,15.0706 -37.05376,44.74079 -11.93918,43.81571 5.22465,-16.18207 15.59924,-56.66039 -13.95077,-41.06187 -18.74587,2.59074 1.54682,12.7336 -0.16056,9.03681 1.20527,-10.38686 -5.07511,-29.16099 -14.405,-19.0837 -0.49169,16.86061 -3.68681,42.20452 17.59216,46.00989 -8.09722,-11.29792 2.16446,-57.47831 -17.94173,-47.29796 -9.84145,24.83911 32.32848,29.20996 31.65485,13.43693 -16.49736,-15.90661 -8.95557,25.02139 -16.34598,34.5112 20.37885,20.23674 26.55071,-21.14604 39.28019,-32.75362 -10.85816,-26.7917 -29.43801,16.44663 -27.20909,22.98453 14.33205,14.53917 6.34681,-10.5173 13.93717,-20.07425 -19.21412,-25.1731 -18.78803,22.17734 -30.51644,31.15375 14.18131,22.79169 29.80674,-21.26924 22.67449,-30.71851 -7.3946,-14.897 -28.67661,12.79669 -28.74256,12.31877 18.12397,18.08613 -1.75851,-36.80304 -10.85218,-18.88152 -1.79109,12.43057 -4.52211,41.22223 12.57808,37.10356 -0.89624,-14.60653 14.52352,-36.26329 -6.80517,-39.26292 -8.77128,14.20558 13.2834,46.72679 17.53535,19.58899 8.77944,-8.62779 5.2825,-27.809 -6.3927,-23.39868 0.40832,17.19402 -11.59863,42.04233 -13.48712,52.0595 17.75591,12.50025 -5.79957,-39.9243 3.25499,-54.97744 5.72653,-12.62686 -3.95888,-11.9073 -11.74457,-17.03985 z" />
    <path
       style="fill:#e7e4c9;fill-opacity:1;fill-rule:nonzero;stroke:none"
       id="path301"
       d="m 231.80199,207.88271 c -2.40748,14.08011 -6.95006,30.47216 10.94523,33.60714 -0.49567,-15.04344 8.13119,-29.23802 -10.94523,-33.60714 z" />
    <path
       style="fill:#e7e4c9;fill-opacity:1;fill-rule:nonzero;stroke:none"
       id="path302"
       d="m 251.80465,217.16316 c -18.07872,15.05323 2.60015,36.43771 16.08563,16.13932 11.83106,-8.00548 -16.14656,-20.36606 -16.80289,-3.70386 -15.18308,5.10102 15.53107,19.17611 11.69737,-0.72045 6.94551,-6.31513 -7.88273,-8.31673 -10.98011,-11.71501 z" />
    <path
       style="fill:#e7e4c9;fill-opacity:1;fill-rule:nonzero;stroke:none"
       id="path303"
       d="m 242.77126,235.86302 c 18.62616,-11.92008 -19.80028,-25.17869 -10.57162,-5.82225 3.52387,1.94075 7.04775,3.8815 10.57162,5.82225 z" />
    <path
       style="fill:#222222;fill-opacity:1;fill-rule:nonzero;stroke:none"
       id="path304"
       d="m 259.71715,326.12926 c -5.82752,-27.0749 10.07708,-56.42012 35.31668,-67.05724 -12.73013,-15.90452 -27.77632,0.0562 -37.02425,11.88943 -9.99208,13.10727 -19.58228,39.561 -6.53596,51.13758 2.74784,1.34341 5.49569,2.68682 8.24353,4.03023 z" />
    <path
       style="fill:#222222;fill-opacity:1;fill-rule:nonzero;stroke:none"
       id="path305"
       d="m 228.37212,249.3039 c -16.5252,20.32736 16.42923,41.55174 25.71002,24.43098 -6.15689,-9.87821 -36.61024,-3.89798 -18.02507,1.38411 6.64343,4.85969 8.04195,-26.49004 -7.68495,-25.81509 z" />
    <path
       style="fill:#222222;fill-opacity:1;fill-rule:nonzero;stroke:none"
       id="path306"
       d="m 254.08532,282.39405 c 11.94133,3.98266 33.52726,-5.6861 13.12083,-12.37183 -7.78837,5.71175 -35.09511,-0.0207 -15.78456,10.30232 0.88791,0.68983 1.77582,1.37967 2.66373,2.06951 z" />
    <path
       style="fill:#222222;fill-opacity:1;fill-rule:nonzero;stroke:none"
       id="path307"
       d="m 237.12575,275.66459 c -12.39926,9.38514 24.8302,37.10006 17.9284,9.20004 -7.98518,-20.17853 -28.80198,9.74202 -9.56164,19.48848 16.36418,3.96611 12.01111,-41.35148 -5.35172,-27.62874 -6.88699,11.16187 17.581,22.4145 14.58168,5.45725 -14.87044,-14.40933 -13.89567,-0.36339 -14.88843,13.91483 13.97386,6.36476 14.05046,12.63235 11.64897,-3.83903 10.1915,-10.53071 -19.00043,-23.14506 -10.17731,-2.78306 2.62471,11.9806 23.47291,8.45966 6.17127,-1.46803 2.63546,-5.63537 -4.12074,-7.06953 -10.35122,-12.34174 z" />
    <path
       style="fill:#414141;fill-opacity:1;fill-rule:nonzero;stroke:none"
       id="path308"
       d="m 308.99424,255.7658 c 24.26036,13.40148 48.83618,-4.89231 73.05352,2.2739 15.46578,2.58724 -32.66452,-17.65323 -8.59019,-4.3243 21.62476,7.28507 -24.37763,-20.17128 -4.56758,-3.93001 19.9047,12.66851 -16.31949,-16.11665 -2.36212,4.49823 12.50273,8.41757 23.86291,3.60379 7.08782,-4.58915 -24.26634,-8.7272 -48.69381,10.99951 -72.85642,-2.1884 -9.86182,-3.4174 7.40668,6.81142 8.23497,8.25973 z" />
    <path
       style="fill:#303030;fill-opacity:1;fill-rule:nonzero;stroke:none"
       id="path309"
       d="m 321.07829,245.81062 c -16.90586,1.45909 -53.5771,4.14579 -27.74875,10.96862 -10.08268,-7.52216 -33.70165,-33.15569 -23.21473,-6.32306 -8.70353,6.8183 15.64055,22.69726 11.88732,8.15048 11.2731,-24.89129 -35.84636,-19.74502 -35.63278,3.06866 -12.08583,26.34366 28.75093,8.05515 28.79433,-11.27828 10.54136,-16.08445 -21.62849,-17.25757 -21.11663,0.65268 -1.43725,9.47819 -18.3882,20.94776 -13.46632,18.27212 23.96386,20.79683 -4.11556,-27.1059 -7.23889,-5.8596 -3.03662,28.88991 32.46767,19.01378 23.08949,-5.63888 -14.51882,-17.24373 -47.20134,7.81858 -16.66641,13.63843 20.62645,-6.95977 -7.66593,-28.96025 -9.39926,-7.42705 13.91859,13.20381 50.68075,-6.35499 51.01708,-14.52669 -16.99764,-11.05369 -5.14832,-0.0666 3.96941,0.99138 -17.81339,-16.00409 -42.95145,7.91741 -65.49428,0.0868 -2.88455,-0.0843 19.61765,10.13205 2.84028,-3.31223 -19.04696,-5.0893 -42.25382,6.18567 -62.57672,3.78966 15.09323,19.44948 38.94186,-14.22027 13.08666,-7.17958 8.15269,9.66793 36.36411,5.03979 11.05655,-0.0384 -6.92584,-3.06856 -9.43144,3.59977 4.23256,7.60074 11.93408,2.8224 -25.74935,-18.33117 -20.32531,-9.32599 12.33325,14.40802 30.99044,-21.41405 4.49983,-16.49709 -12.7403,3.1053 -45.88233,11.09072 -16.17217,18.31345 18.96381,-0.7643 -12.34094,-16.50052 -13.26825,0.26788 -9.16157,10.10275 16.41184,16.60166 18.83117,1.07556 9.91337,-13.35901 -33.89401,-15.80127 -8.54806,-1.02316 8.72334,-7.84929 48.14409,-6.36191 21.42254,-19.89828 -6.41116,9.3708 -20.26501,20.50405 0.69075,24.77752 17.12465,4.80656 6.67909,-1.08175 -1.31834,-6.98891 1.49805,18.73107 37.53073,7.61836 16.82197,-1.97524 -15.49821,-1.5383 -20.49367,2.14379 -5.25168,9.49048 -9.64257,-22.37807 -41.51149,11.57512 -9.18786,10.0232 12.0282,-2.82846 45.7195,-0.0298 45.64817,-8.92554 -22.35908,-14.38913 10.77404,18.14394 22.17759,8.56198 13.24498,3.66635 56.3346,-9.36961 26.43784,-15.43199 12.97949,9.51438 14.6825,9.69284 0.31093,0.67331 -7.08838,9.47529 -48.55889,13.7453 -28.12462,25.40511 22.10109,-18.19498 -30.40412,-15.44701 -7.9546,-2.2226 6.50049,9.55067 6.29239,-15.71699 20.77183,-5.58492 -15.18527,-16.44931 -11.15834,2.78054 -18.82584,12.99749 14.26961,8.11593 12.2258,10.18267 9.27088,-5.09417 1.24354,-10.20559 -23.22242,-22.99009 -10.50778,-2.85148 16.00241,29.31834 36.81385,-14.82036 38.3429,-24.5695 -14.89267,-20.54839 -14.54441,24.02871 -31.82444,26.0817 19.00089,24.4153 21.60135,-28.85791 40.44421,-18.19035 -15.68023,-21.91345 -21.97656,21.48773 -1.58069,13.41616 16.39983,-13.37948 -24.50724,-41.02897 -11.91441,-20.90911 14.61896,22.07424 45.70841,14.05823 62.63798,10.70527 -3.64115,-2.64555 -7.2823,-5.29111 -10.92345,-7.93666 z" />
    <path
       style="fill:#000000;fill-opacity:1;fill-rule:nonzero;stroke:none"
       id="path310"
       d="m 222.15054,88.402627 c -24.64904,9.925183 27.26509,16.578373 0.9272,4.118442 -25.5027,-2.960726 24.31199,15.040191 5.5573,0.03351 -2.1615,-1.383984 -4.323,-2.767968 -6.4845,-4.151952 z" />
    <path
       style="fill:#000000;fill-opacity:1;fill-rule:nonzero;stroke:none"
       id="path311"
       d="m 301.72661,103.45627 c -26.04573,4.70083 30.08689,17.3978 7.20249,2.44966 -21.89225,-11.550842 17.72084,15.27134 2.01621,1.6343 -11.65575,-10.272028 -23.99708,1.75777 -5.01778,7.06527 17.45109,-2.52488 0.37145,-6.11383 -4.20092,-11.14923 z" />
    <path
       style="fill:#38150d;fill-opacity:1;fill-rule:nonzero;stroke:none"
       id="path312"
       d="m 223.35679,186.10966 c -12.37187,0.21173 -28.08307,-6.39766 -8.08568,3.87096 -2.62952,-4.52891 -29.36813,-17.10982 -8.9119,-3.20315 10.50399,6.25451 -24.38784,-16.10173 -1.11601,0.31732 9.43055,7.49564 45.34612,13.86455 18.11359,-0.98513 z" />
    <path
       style="fill:#38150d;fill-opacity:1;fill-rule:nonzero;stroke:none"
       id="path313"
       d="m 283.51952,209.30532 c 15.72744,4.89583 29.93485,-0.2813 10.62108,-8.62305 -8.92389,6.96209 -37.0916,-9.29474 -10.62108,8.62305 z" />
    <path
       style="fill:#4a4a4a;fill-opacity:1;fill-rule:nonzero;stroke:none"
       id="path314"
       d="m 166.12245,252.355 c 16.9893,-14.06248 -25.7627,-17.50065 -4.34914,-4.06597 19.83579,11.19197 5.99616,-7.13873 -4.61837,-5.73127 14.8201,14.56523 16.81101,0.0881 2.38937,-7.59416 -12.11136,12.56496 -2.16034,10.84114 6.57814,17.3914 z" />
    <path
       style="fill:#878787;fill-opacity:1;fill-rule:nonzero;stroke:none"
       id="path315"
       d="m 179.33041,230.77228 c 8.20243,11.06732 25.56848,10.22469 5.76558,2.46327 -1.92186,-0.82109 -3.84372,-1.64218 -5.76558,-2.46327 z" />
    <path
       style="fill:#000000;fill-opacity:1;fill-rule:nonzero;stroke:none"
       id="path326"
       d="m 231.30319,277.84124 c 6.81535,-1.97817 7.00726,9.16214 15.23866,-0.0598 1.95458,-13.49284 -4.42896,-11.42274 -4.28679,0.58156 -8.22812,2.89962 1.30656,1.37659 -8.33989,-1.11829 9.91225,4.66646 -12.61236,-5.85631 -2.61198,0.59648 z" />
    <path
       style="fill:#000000;fill-opacity:1;fill-rule:nonzero;stroke:none"
       id="path327"
       d="m 246.45142,278.21395 c -4.35393,1.61736 30.52561,4.65992 6.32341,0.0445 -1.93977,2.24777 -14.7099,-5.60862 -6.32341,-0.0445 z" />
    <path
       style="fill:#000000;fill-opacity:1;fill-rule:nonzero;stroke:none"
       id="path328"
       d="m 241.90241,303.5364 c 10.15322,1.4494 3.99649,-7.73343 -1.61713,-1.62325 -3.56943,-2.02534 1.09546,1.06959 1.61713,1.62325 z" />
    <path
       style="fill:#000000;fill-opacity:1;fill-rule:nonzero;stroke:none"
       id="path329"
       d="m 239.84193,309.32863 c 15.11565,6.24262 0.90508,-5.35794 3.47574,1.39489 -1.15858,-0.46496 -2.31716,-0.92993 -3.47574,-1.39489 z" />
    <path
       style="fill:#000000;fill-opacity:1;fill-rule:nonzero;stroke:none"
       id="path330"
       d="m 246.16726,319.41113 c 14.56785,-4.38157 -9.02425,-5.82007 0,0 z" />
    <path
       style="fill:#000000;fill-opacity:1;fill-rule:nonzero;stroke:none"
       id="path331"
       d="m 243.99104,316.63195 c -10.715,-1.12886 10.72298,6.54405 0,0 z" />
    <path
       style="fill:#000000;fill-opacity:1;fill-rule:nonzero;stroke:none"
       id="path332"
       d="m 254.65317,317.57969 c -0.52407,4.88441 -6.34373,-5.40728 -3.52249,1.12047 2.19618,1.02715 10.88297,2.89237 3.52249,-1.12047 z" />
    <path
       style="fill:#000000;fill-opacity:1;fill-rule:nonzero;stroke:none"
       id="path333"
       d="m 251.16083,316.2501 c 0.83152,-6.28419 -9.55863,-4.02861 0,0 z" />
    <path
       style="fill:#000000;fill-opacity:1;fill-rule:nonzero;stroke:none"
       id="path334"
       d="m 248.57104,309.67291 c 5.09526,-11.97655 -9.65579,-4.50197 0,0 z" />
    <path
       style="fill:#000000;fill-opacity:1;fill-rule:nonzero;stroke:none"
       id="path335"
       d="m 246.65443,298.59771 c -2.29956,8.83425 4.74664,28.46006 3.49778,8.78558 -0.6179,-3.66812 1.72468,-7.99519 -3.49778,-8.78558 z" />
    <path
       style="fill:#000000;fill-opacity:1;fill-rule:nonzero;stroke:none"
       id="path336"
       d="m 251.67971,310.77539 c 10.47268,0.99386 -10.8243,-6.37998 0,0 z" />
    <path
       style="fill:#000000;fill-opacity:1;fill-rule:nonzero;stroke:none"
       id="path337"
       d="m 251.20584,304.85198 c 13.68729,-2.12843 -10.97001,-5.23019 0,0 z" />
    <path
       style="fill:#000000;fill-opacity:1;fill-rule:nonzero;stroke:none"
       id="path338"
       d="m 223.98629,388.59049 c 2.76541,-1.20217 -7.05297,-3.79357 0,0 z" />
    <path
       style="fill:#000000;fill-opacity:1;fill-rule:nonzero;stroke:none"
       id="path339"
       d="m 267.8003,392.21463 c -6.34791,-2.09493 -3.56127,0.90504 1.85452,1.34738 l -1.17253,-0.85188 z" />
  </g>
</svg>
